<?xml version="1.0" standalone="no"?>
<!DOCTYPE svg PUBLIC "-//W3C//DTD SVG 20010904//EN"
 "http://www.w3.org/TR/2001/REC-SVG-20010904/DTD/svg10.dtd">
<svg version="1.0" xmlns="http://www.w3.org/2000/svg"
 width="372.000000pt" height="372.000000pt" viewBox="0 0 372.000000 372.000000"
 preserveAspectRatio="xMidYMid meet">
<metadata>
Created by potrace 1.11, written by Peter Selinger 2001-2013
</metadata>
<g transform="translate(0.000000,372.000000) scale(0.100000,-0.100000)"
fill="#000000" stroke="none">
<path d="M1835 3493 c-122 -150 -320 -301 -540 -409 -240 -119 -462 -177 -765
-200 -78 -5 -89 -12 -91 -54 0 -14 -2 -34 -5 -45 -5 -27 -5 -285 0 -363 6 -84
15 -156 26 -217 5 -27 11 -63 14 -80 33 -232 158 -677 214 -763 8 -12 11 -22
8 -22 -15 0 199 -377 248 -436 8 -11 35 -47 60 -80 165 -222 470 -475 726
-602 159 -79 130 -79 274 -6 670 336 1106 977 1251 1838 13 78 27 173 30 211
4 39 9 84 11 100 7 45 12 423 7 475 l-5 45 -56 1 c-75 0 -199 12 -265 25 -28
5 -65 12 -82 15 -83 14 -286 82 -391 130 -74 34 -251 134 -281 158 -10 8 -47
37 -83 63 -67 50 -196 174 -241 231 l-25 34 -39 -49z"/>
</g>
</svg>
